<svg xmlns="http://www.w3.org/2000/svg" id="Layer_1" data-name="Layer 1" viewBox="0 0 245 92.51"><defs><style>.cls-1{fill:#717272;}.cls-2{fill:#60e438;}.cls-3{fill:#1a70b8;}</style></defs><title>My care</title><path class="cls-1" d="M105.07,70.29a2.73,2.73,0,0,1-2.72-2.72V52.2L95.47,69.29a1.62,1.62,0,0,1-1.53,1,1.59,1.59,0,0,1-1.45-1L85.6,52.2V67.61a2.72,2.72,0,0,1-5.43,0v-20a3.07,3.07,0,0,1,3.06-3.06c2.49-.27,4.63.27,5.55,2.49L94,60,99.18,47a4,4,0,0,1,3.71-2.49c2.44-.38,4.93.54,4.93,3.06v20A2.74,2.74,0,0,1,105.07,70.29Z"></path><path class="cls-1" d="M129.72,48.18l-7.38,11.44v8a2.72,2.72,0,0,1-5.43,0v-8l-7.45-11.47a2.29,2.29,0,0,1-.39-1.31,2.61,2.61,0,0,1,4.82-1.26l5.74,9.22,5.62-9.18a2.64,2.64,0,0,1,2.26-1.26,2.53,2.53,0,0,1,2.6,2.48A2.45,2.45,0,0,1,129.72,48.18Z"></path><path class="cls-1" d="M159.77,48.34a2.42,2.42,0,0,1,.54,1.49,2.53,2.53,0,0,1-2.6,2.45,2.75,2.75,0,0,1-2-.88A7.35,7.35,0,0,0,150.48,49c-4.63,0-8,3.55-8,8.37s3.36,8.38,8,8.38a7.08,7.08,0,0,0,5.24-2.41,2.82,2.82,0,0,1,2.07-.88,2.43,2.43,0,0,1,2.48,2.37,2.18,2.18,0,0,1-.53,1.49,11.48,11.48,0,0,1-9.26,4.24c-7.65,0-13.57-5.35-13.57-13.19s5.92-13.19,13.57-13.19A11.54,11.54,0,0,1,159.77,48.34Z"></path><path class="cls-1" d="M180.73,70.29a2.81,2.81,0,0,1-2.64-1.8l-1-2.76H166.16l-1,2.76a2.82,2.82,0,0,1-2.67,1.8,2.9,2.9,0,0,1-2.87-2.91,2.51,2.51,0,0,1,.19-1l7.46-19.16a4.51,4.51,0,0,1,4.16-2.87A4.63,4.63,0,0,1,176,47.19l7.42,19.16a3.4,3.4,0,0,1,.19,1A2.93,2.93,0,0,1,180.73,70.29ZM171.62,50l-4,11h7.95Z"></path><path class="cls-1" d="M199.08,60.34l3.51,6a2.76,2.76,0,0,1,.35,1.3,2.71,2.71,0,0,1-2.68,2.68,2.65,2.65,0,0,1-2.33-1.38L193.57,61h-4v6.62a2.72,2.72,0,0,1-5.43,0v-20a3.07,3.07,0,0,1,3.06-3.06h8.87c5.32,0,8.57,3.48,8.57,8.22A7.32,7.32,0,0,1,199.08,60.34Zm-9.49-11v6.88h5.7c2.18,0,3.82-1.3,3.82-3.44s-1.64-3.44-3.82-3.44Z"></path><path class="cls-1" d="M221.63,70.06H208.75A3.07,3.07,0,0,1,205.69,67V47.61a3.07,3.07,0,0,1,3.06-3.06h12.88a2.39,2.39,0,0,1,0,4.78H211.12v5.39h10.24a2.39,2.39,0,0,1,0,4.78H211.12v5.78h10.51A2.37,2.37,0,0,1,224,67.61,2.39,2.39,0,0,1,221.63,70.06Z"></path><circle class="cls-2" cx="44.76" cy="15.86" r="8.69"></circle><polygon class="cls-2" points="71.87 88.66 46.94 71.28 53.31 66.58 71.87 79.52 71.87 88.66"></polygon><path class="cls-3" d="M68.81,35.83c-4.29-6.34-13.07-8.44-19.34-4-.22.15-.42.27-.63.4h0L45,35.35l-4.61-3.56c-6.23-4.35-14.91-2.26-19.16,4a14.41,14.41,0,0,0,3.06,19.49c3.7,2.8,7.6,5.35,11.42,8,.48.34,1,.81,1.65.31,1.81-1.31,3.64-2.6,5.62-4-4.68-3.29-9.16-6.41-13.61-9.57-3.67-2.6-4.51-6.79-2.08-10.2s6.53-4,10.15-1.48c1.25.86,2.47,1.75,3.71,2.62L45,43.85l3.13-2.37c1.61-1.14,3.23-2.29,4.85-3.41a6.74,6.74,0,0,1,5-1.21,7,7,0,0,1,6,5.71c.57,3.16-.75,5.57-3.32,7.39-13.82,9.73-29.23,20.51-43,30.24V89c.31-.26,2.19-1.56,2.52-1.79C35.17,76.64,50.26,66.12,65.28,55.5A14.22,14.22,0,0,0,68.81,35.83Z"></path></svg>